<svg width="106" height="44" viewBox="0 0 106 44" xmlns="http://www.w3.org/2000/svg" xmlns:xlink="http://www.w3.org/1999/xlink">
    <defs>
        <path id="6p4w6djmfa" d="M0 0h46v44H0z"/>
        <path id="dv8l16u1tc" d="M0 0h22v30H0z"/>
        <path id="jt0l22xnde" d="M0 0h21v31H0z"/>
    </defs>
    <g fill="none" fill-rule="evenodd">
        <g transform="translate(15)">
            <mask id="5b68wfcj4b" fill="#fff">
                <use xlink:href="#6p4w6djmfa"/>
            </mask>
            <path d="M25.432 2.562c0 .124.101.226.225.226h1.094a.226.226 0 0 0 .226-.226V1.467a.227.227 0 0 0-.226-.226h-1.094a.226.226 0 0 0-.225.226v1.095zm4.83 3.698c0 .124.102.226.226.226h1.094a.226.226 0 0 0 .226-.226V5.165a.227.227 0 0 0-.226-.226h-1.094a.227.227 0 0 0-.226.226V6.26zM0 22.846v-.993c0-.113.092-.205.205-.205h.992c.113 0 .205.092.205.205v.993a.205.205 0 0 1-.205.204H.205A.205.205 0 0 1 0 22.846zm1.9 9.757c0 .167.137.305.304.305H3.68a.306.306 0 0 0 .304-.305v-1.476a.306.306 0 0 0-.304-.305H2.204a.305.305 0 0 0-.304.305v1.476zM.155 8.107V6.944a.24.24 0 0 1 .24-.24h1.163a.24.24 0 0 1 .24.24v1.163a.24.24 0 0 1-.24.24H.395a.24.24 0 0 1-.24-.24zm10.322-6.704V.24a.24.24 0 0 1 .24-.24h1.162a.24.24 0 0 1 .24.24v1.163a.24.24 0 0 1-.24.24h-1.162a.24.24 0 0 1-.24-.24zm8.622.9c0 .166.136.303.303.303h1.468a.304.304 0 0 0 .303-.303V.834a.304.304 0 0 0-.303-.303h-1.468a.304.304 0 0 0-.303.303v1.469zm-5.218 6.041c0 .39.319.71.709.71h3.437c.39 0 .71-.32.71-.71V4.905c0-.39-.32-.71-.71-.71H14.59c-.39 0-.71.32-.71.71v3.44zM7.798 29.447a.463.463 0 0 0 .132-.323v-2.246a.465.465 0 0 0-.463-.464H5.548c-.352 0-.604-.005-.847-.249l-.42-.42c-.185-.185-.25-.334-.25-.58v-1.191a.294.294 0 0 0-.293-.293H2.32a.293.293 0 0 0-.203.082.292.292 0 0 0-.082.203v1.42c0 .161.131.293.293.293h1.19c.247 0 .395.064.58.25l.42.42c.244.244.25.496.25.848v1.92c0 .254.208.463.463.463h2.244c.126 0 .24-.05.324-.133zM1.13 14v-1.478c0-.168.137-.305.304-.305h1.478c.168 0 .305.137.305.305V14a.306.306 0 0 1-.305.305H1.434A.306.306 0 0 1 1.13 14zm6.794.221c0 .241.197.438.437.438h2.121a.439.439 0 0 0 .438-.438V12.1a.439.439 0 0 0-.438-.438h-2.12a.439.439 0 0 0-.438.438v2.121zm17.76-1.31c0 .196.16.356.354.356h1.72c.195 0 .355-.16.355-.355v-1.72a.356.356 0 0 0-.355-.356h-1.72a.356.356 0 0 0-.355.355v1.72zM14.102 33.759c0 .278.227.506.505.506h2.447a.507.507 0 0 0 .505-.506V31.31a.507.507 0 0 0-.505-.505h-2.447a.507.507 0 0 0-.505.505v2.45zm5.462-16.755c0 .138.112.25.25.25h1.214c.137 0 .25-.112.25-.25V15.79a.251.251 0 0 0-.25-.25h-1.214a.251.251 0 0 0-.25.25v1.214zm9.136-.018c-5.322 0-9.637 4.316-9.637 9.641s4.315 9.641 9.637 9.641 9.637-4.316 9.637-9.64c0-5.326-4.315-9.642-9.637-9.642zm12.89-1.903A17.25 17.25 0 0 1 46 26.626c0 6.877-4.008 12.816-9.815 15.609A17.317 17.317 0 0 1 28.544 44c-5.047 0-9.59-2.15-12.768-5.584-.322-.349-1.197-1.607-3.105-1.607H9.496a.985.985 0 0 1-.981-.983v-4.76c0-.54.441-.981.981-.981h4.027c3.364 0 3.165-5.309.148-5.309h-4.96a.765.765 0 0 1-.762-.762v-3.159c0-.58-.009-.994-.409-1.394l-.191-.192c-.305-.304-.548-.41-.953-.41h-1.96a.483.483 0 0 1-.482-.482V16.04a.48.48 0 0 1 .136-.333.48.48 0 0 1 .333-.137H6.76c.265 0 .481.218.481.483v1.961c0 .405.107.648.41.952l.192.192c.4.4.815.41 1.394.41l5.128-.003c.454 0 .699.171.699.61v.471c0 .218.178.397.396.397h1.92a.397.397 0 0 0 .396-.397v-1.92a.398.398 0 0 0-.396-.397h-.742c-.222 0-.477-.24-.477-.462v-1.774a.596.596 0 0 0-.594-.594h-1.622c-.42 0-.92-.444-.92-.865v-2.069c0-.769-.013-1.32-.545-1.851l-3.317-3.32c-.404-.403-.728-.544-1.265-.544H5.293a.642.642 0 0 1-.64-.64V3.105c0-.17.07-.328.181-.443a.638.638 0 0 1 .444-.18h3.1c.353 0 .64.288.64.64v2.605c0 .537.142.86.546 1.265l3.316 3.319c.532.531 1.083.544 1.852.544h8.005c1.386 0 2.784-.497 2.784-2.27v-.634c0-.466-.008-.8-.33-1.122l-.655-.655c-.245-.245-.44-.33-.766-.33h-1.577a.389.389 0 0 1-.387-.388V3.578c0-.104.042-.199.11-.269a.387.387 0 0 1 .268-.109h1.877c.214 0 .388.175.388.388v1.578c0 .325.086.521.33.766l.655.655c.322.322.656.33 1.121.33h2.54c.337 0 .613.276.613.613v.49c0 .803 1.007 1.297 1.501 1.372a17.365 17.365 0 0 1 10.382 5.69zm-25.248-.444c0 .224.183.408.407.408h1.975a.409.409 0 0 0 .407-.408v-1.976a.409.409 0 0 0-.407-.407H16.75a.409.409 0 0 0-.407.407v1.976z" fill="#FEFEFE" mask="url(#5b68wfcj4b)"/>
        </g>
        <g transform="translate(0 12)">
            <mask id="yixvs5ogid" fill="#fff">
                <use xlink:href="#dv8l16u1tc"/>
            </mask>
            <path d="M16.102 20.7c0-2.7-1.895-4.029-5.037-4.029H5.898v8.143h5.167c3.142 0 5.037-1.285 5.037-4.114m-5.77-15.514H5.899v6.643h4.435c2.41 0 3.96-1.115 3.96-3.515 0-2.271-1.593-3.128-3.96-3.128M22 21.343C22 27 18.427 30 10.893 30H.646C.258 30 0 29.743 0 29.357V.643C0 .257.258 0 .646 0h10.247c5.984 0 8.954 3.514 8.954 7.586 0 3.128-1.636 5.485-3.832 6.343 3.187.814 5.985 3.514 5.985 7.414" fill="#FEFEFE" mask="url(#yixvs5ogid)"/>
        </g>
        <path d="M83 33.1c0 5.675-5.265 8.9-10.573 8.9-4.439 0-8.268-2.322-10.269-4.687-.217-.3-.217-.601.044-.902l2.61-2.795c.261-.301.61-.344.958-.043 2.088 1.806 4.133 2.924 6.787 2.924 2.568 0 4.613-1.376 4.613-3.526 0-5.331-14.446-3.698-14.446-13.544 0-5.246 4.481-8.427 9.485-8.427 3.786 0 6.875 1.591 9.312 3.998.304.302.304.56 0 .904l-2.394 2.88c-.26.344-.565.387-.913.13-2.132-1.635-3.655-2.409-5.83-2.409-2.437 0-3.873 1.29-3.873 3.053C68.51 24.844 83 22.652 83 33.1" fill="#FEFEFE"/>
        <g transform="translate(85 11)">
            <mask id="2o86xwddkf" fill="#fff">
                <use xlink:href="#jt0l22xnde"/>
            </mask>
            <path d="M21 22.1c0 5.675-5.265 8.9-10.573 8.9-4.439 0-8.268-2.322-10.269-4.687-.217-.3-.217-.601.044-.902l2.61-2.795c.261-.301.61-.344.958-.043 2.088 1.806 4.133 2.924 6.788 2.924 2.567 0 4.612-1.376 4.612-3.526C15.17 16.64.724 18.273.724 8.427.724 3.181 5.205 0 10.209 0c3.786 0 6.875 1.591 9.312 3.998.304.302.304.56 0 .904l-2.393 2.88c-.261.344-.566.387-.914.13-2.132-1.635-3.655-2.409-5.83-2.409-2.437 0-3.873 1.29-3.873 3.053C6.51 13.844 21 11.652 21 22.1" fill="#FEFEFE" mask="url(#2o86xwddkf)"/>
        </g>
        <path d="M16.337 14h1.636c.01 0 .018-.003.027-.003A8.514 8.514 0 0 0 16 13v.79c0 .116.152.21.337.21M20 28v1.495c0 .278.158.505.35.505H21a8.684 8.684 0 0 0-1-2M17.292 31a.293.293 0 0 0-.292.292v1.416c0 .16.131.292.292.292h1.416c.16 0 .292-.131.292-.292v-1.416a.293.293 0 0 0-.292-.292h-1.416zM19 16.175v2.342c0 .266.281.483.624.483H20a6.157 6.157 0 0 0-.955-3 .381.381 0 0 0-.045.175M17.064 24.065a.236.236 0 0 0-.064.162V25c.373-.27.71-.606 1-1h-.78a.221.221 0 0 0-.156.065M15.854 22h-.708a.146.146 0 0 0-.146.146v.708c0 .08.066.146.146.146h.708c.08 0 .146-.066.146-.146v-.708a.146.146 0 0 0-.146-.146" fill="#FEFEFE"/>
    </g>
</svg>
